<?xml version="1.0" encoding="utf-8"?>
<!-- Generator: Adobe Illustrator 16.0.0, SVG Export Plug-In . SVG Version: 6.00 Build 0)  -->
<!DOCTYPE svg PUBLIC "-//W3C//DTD SVG 1.1//EN" "http://www.w3.org/Graphics/SVG/1.1/DTD/svg11.dtd">
<svg version="1.1" id="图层_1" xmlns="http://www.w3.org/2000/svg" xmlns:xlink="http://www.w3.org/1999/xlink" x="0px" y="0px"
	 width="400px" height="68px" viewBox="0 0 400 68" enable-background="new 0 0 400 68" xml:space="preserve">
<polygon fill="#2B5298" points="196.396,28.583 157.1,28.583 157.1,35.901 196.396,35.901 196.396,65.134 206.399,65.134 
	206.399,3.116 196.396,3.116 "/>
<polygon fill="#2B5298" points="252.196,3.116 217.383,3.116 217.383,10.435 242.292,10.435 242.292,65.134 252.297,65.134 
	252.297,26.57 252.196,26.57 "/>
<rect x="248.878" y="3.116" fill="#2B5298" width="28.429" height="7.319"/>
<polygon fill="#2B5298" points="291.013,3.116 291.013,10.435 315.921,10.435 315.921,65.134 325.926,65.134 325.926,10.435 
	325.926,3.116 "/>
<rect x="321.808" y="3.116" fill="#2B5298" width="28.217" height="7.319"/>
<path fill="#2B5298" d="M397.58,12.592c-1.53-2.567-3.55-4.562-6.059-5.986c-2.512-1.424-5.621-2.39-9.335-2.898
	c-2.646-0.395-4.657-0.592-9.676-0.592h-10.108v7.319h10.934c4.538,0,5.825,0.183,7.511,0.55c2.612,0.592,4.719,1.812,6.317,3.659
	s2.398,4.069,2.398,6.663c0,3.582-1.359,6.36-4.076,8.334c-2.715,1.974-5.481,2.961-11.944,2.961h-11.14v7.319h10.985
	c10.691,0,16.26-1.827,20.352-5.479c4.091-3.652,6.137-8.115,6.137-13.389C399.876,17.979,399.11,15.158,397.58,12.592z"/>
<path fill="#2B5298" d="M57.854,29.438h-0.028C57.05,14.75,44.685,3.075,29.544,3.075c-14.46,0-26.388,10.649-28.106,24.402
	c-0.081,0.646-0.271,37.657-0.271,37.657h9.592V37.083l0.009,0.007c0,0-0.007-8.796,0.09-9.356
	c1.53-8.788,9.307-15.479,18.687-15.479c10.481,0,18.978,8.349,18.978,18.647c0,0.366,0.132,34.232,0.132,34.232h9.199V29.438z"/>
<path fill="#2D519A" d="M105.818,0.664c-18.766,0-34.032,15.001-34.032,33.44c0,18.44,15.267,33.441,34.032,33.441
	c18.766,0,34.033-15.001,34.033-33.441C139.851,15.665,124.584,0.664,105.818,0.664z"/>
<path fill="#F7F8F8" d="M105.826,60.55c-14.142,0-25.772-10.775-26.833-24.41l5.67,2.039c0,0,4.448,6.429,4.908,7.294
	c0.297,0.56,2.507,5.98,2.507,5.98c0.106,0.257,0.186,0.521,0.244,0.792c0.306,1.391,1.634,5.279,7.048,6.61
	c0.068,0.017,0.136,0.023,0.205,0.023c0.337,0,0.66-0.201,0.789-0.542c0.094-0.243,0.047-0.518-0.089-0.741
	c-3.803-6.193,0.928-10.791,1.129-10.982c0.175-0.162,0.269-0.392,0.259-0.628l-0.25-6.635c-0.016-0.431-0.368-0.776-0.806-0.793
	l-6.04-0.238L90.5,35.968c-0.181-0.104-0.395-0.139-0.6-0.097l-4.242,0.879c-0.481-1.697-0.2-3.551,0.779-5.036l2.496-3.785
	c0.304-0.462,0.519-0.967,0.638-1.502c0.238-1.063-0.007-2.188-0.67-3.085c-0.692-0.935-1.76-1.536-2.931-1.65
	c-0.394-0.039-0.696-0.36-0.677-0.748l0.192-4.138c0.518-0.586,1.062-1.148,1.629-1.689l0.9,1.883
	c0.287,0.598,0.792,1.049,1.423,1.271c0.274,0.096,0.562,0.144,0.849,0.144c0.37,0,0.74-0.08,1.077-0.237
	c0.321-0.15,0.629-0.23,0.919-0.24l1.75-0.053c0.962-0.03,1.833-0.565,2.281-1.403l2.813-5.266c0.08-0.151,0.168-0.299,0.276-0.432
	c0.415-0.504,0.609-1.146,0.538-1.803c-0.025-0.226-0.083-0.443-0.165-0.647c1.946-0.441,3.97-0.674,6.049-0.674
	c5.111,0,9.894,1.407,13.967,3.847l-2.856-0.078c-1.682-0.043-3.293,0.714-4.311,2.034l-2.58,3.352
	c-0.09,0.118-0.158,0.254-0.179,0.4c-0.05,0.365-0.22,3.561-0.251,3.579c-0.622,0.347-0.978,1.03-0.877,1.754
	c0.063,0.462,0.334,0.873,0.708,1.16l1.471,1.124c0.467,0.356,1.081,0.461,1.643,0.276l9.492,2.191
	c0.061,0.032,0.092,0.102,0.071,0.167c0,0-0.562,1.906-0.57,1.976l-8.028-1.434c-0.171-0.031-0.347-0.009-0.503,0.063l-7.002,3.194
	c-0.414,0.189-0.598,0.67-0.415,1.081l3.524,7.883c0.115,0.259,0.356,0.442,0.641,0.484l4.143,0.628l2.185,11.171
	c0.194,0.985,1.076,1.703,2.098,1.703h1.982c0.935,0,1.752-0.59,2.036-1.464l4.392-13.596c0.18-0.557,0.055-1.162-0.345-1.613
	c-0.294-0.33-0.719-0.52-1.164-0.563l-0.809-0.079l-1.362-5.013c2.774,3.571,3.146,3.575,3.567,3.575
	c0.369,0,0.752-0.116,2.637-1.674c0.676-0.559,1.086-1.377,1.124-2.244c0.038-0.867-0.298-1.716-0.924-2.33l-0.017-0.017
	l2.989,0.167c0.284,1.539,0.434,3.125,0.434,4.743C132.739,48.686,120.666,60.55,105.826,60.55z"/>
</svg>
